<?xml version="1.0" encoding="UTF-8" standalone="no"?>
<!-- Created with Inkscape (http://www.inkscape.org/) -->

<svg
   width="765.73334"
   height="298"
   viewBox="0 0 765.73334 298"
   version="1.1"
   id="svg5"
   xmlns="http://www.w3.org/2000/svg"
   xmlns:svg="http://www.w3.org/2000/svg">
  <defs
     id="defs2" />
  <g
     id="layer1"
     transform="translate(-233.87361,-205.54083)">
    <g
       aria-label="Dipolo"
       id="text2340"
       style="font-weight:900;font-size:133.333px;line-height:1.25;font-family:'M PLUS 1';-inkscape-font-specification:'M PLUS 1 Heavy';fill:#241f31">
      <path
         d="m 565.87559,389.2074 h 33.33325 c 34.53324,0 49.33321,-14.5333 49.33321,-48.66654 0,-34.13325 -14.79997,-48.66655 -49.33321,-48.66655 h -33.33325 z m 35.06658,-21.33328 h -8.39998 v -54.66653 h 8.39998 c 15.73329,0 20.26661,6.13332 20.26661,27.33327 0,21.19994 -4.53332,27.33326 -20.26661,27.33326 z"
         id="path128" />
      <path
         d="m 660.40856,389.2074 h 26.6666 v -66.6665 h -26.6666 z m 0,-75.99981 h 26.6666 v -21.33328 h -26.6666 z"
         id="path130" />
      <path
         d="m 748.94151,318.54091 c -8.53331,0 -14.93329,2.79999 -21.46661,9.33331 h -0.26667 l -0.26666,-7.99998 h -24.79994 v 97.33309 h 26.13327 v -35.99991 h 0.26666 c 6.39999,6.66665 12.13331,9.33331 20.39995,9.33331 17.99996,0 27.8666,-12.66664 27.8666,-35.99991 0,-23.33327 -9.86664,-35.99991 -27.8666,-35.99991 z m -9.46664,19.99995 c 7.59998,0 11.7333,5.59999 11.7333,15.99996 0,10.39997 -4.13332,15.99996 -11.7333,15.99996 -6.66665,0 -11.19997,-4.26666 -11.19997,-10.66664 V 349.2075 c 0,-6.39998 4.53332,-10.66664 11.19997,-10.66664 z"
         id="path132" />
      <path
         d="m 822.00772,390.54073 c 24.26661,0 37.33324,-12.5333 37.33324,-35.99991 0,-23.46661 -13.06663,-35.99991 -37.33324,-35.99991 -24.2666,0 -37.33324,12.5333 -37.33324,35.99991 0,23.46661 13.06664,35.99991 37.33324,35.99991 z m 0,-18.66662 c -7.73331,0 -11.19997,-5.33332 -11.19997,-17.33329 0,-11.99997 3.46666,-17.33329 11.19997,-17.33329 7.73332,0 11.19997,5.33332 11.19997,17.33329 0,11.99997 -3.46665,17.33329 -11.19997,17.33329 z"
         id="path134" />
      <path
         d="m 870.80738,389.2074 h 26.6666 v -97.33309 h -26.6666 z"
         id="path136" />
      <path
         d="m 946.27371,390.54073 c 24.26661,0 37.33324,-12.5333 37.33324,-35.99991 0,-23.46661 -13.06663,-35.99991 -37.33324,-35.99991 -24.2666,0 -37.33323,12.5333 -37.33323,35.99991 0,23.46661 13.06663,35.99991 37.33323,35.99991 z m 0,-18.66662 c -7.73331,0 -11.19997,-5.33332 -11.19997,-17.33329 0,-11.99997 3.46666,-17.33329 11.19997,-17.33329 7.73332,0 11.19997,5.33332 11.19997,17.33329 0,11.99997 -3.46665,17.33329 -11.19997,17.33329 z"
         id="path138" />
    </g>
    <g
       id="g17771"
       transform="translate(-50.002004)">
      <rect
         style="fill:#f6f5f4;stroke:#241f31;stroke-width:10;stroke-linecap:round;stroke-miterlimit:4;stroke-dasharray:none"
         id="rect463"
         width="256"
         height="256"
         x="304.87561"
         y="226.54083"
         ry="32"
         rx="32" />
      <circle
         style="fill:#c01c28;stroke:#241f31;stroke-width:19.1177;stroke-linecap:round;stroke-miterlimit:4;stroke-dasharray:none"
         id="path5179"
         cx="471.112"
         cy="400.71323"
         r="40.268772" />
      <rect
         style="fill:#1c71d8;fill-opacity:1;stroke:#241f31;stroke-width:19.1178;stroke-linecap:round;stroke-miterlimit:4;stroke-dasharray:none"
         id="rect5481"
         width="80.537544"
         height="80.537544"
         x="354.37045"
         y="268.0997" />
    </g>
  </g>
</svg>
