<?xml version="1.0" encoding="UTF-8" standalone="no"?>
<!-- Created with Inkscape (http://www.inkscape.org/) -->

<svg
   width="512"
   height="512"
   viewBox="0 0 512 512"
   version="1.1"
   id="svg5"
   xmlns="http://www.w3.org/2000/svg"
   xmlns:svg="http://www.w3.org/2000/svg">
  <defs
     id="defs2" />
  <g
     id="layer1">
    <rect
       style="fill:#deddda;stroke:none;stroke-width:3.92019;stroke-linecap:round"
       id="rect31"
       width="512"
       height="512"
       x="0"
       y="0" />
    <path
       id="path1182"
       style="color:#000000;fill:#241f31;stroke-linecap:round;-inkscape-stroke:none"
       d="M 256 308.65039 C 143.75246 308.65039 52.650391 399.75246 52.650391 512 L 62.650391 512 C 62.650391 405.15685 149.15685 318.65039 256 318.65039 C 362.84315 318.65039 449.34961 405.15685 449.34961 512 L 459.34961 512 C 459.34961 399.75246 368.24754 308.65039 256 308.65039 z M 243.92383 714.96094 C 247.92256 715.19569 251.94271 715.34961 256 715.34961 C 260.05729 715.34961 264.07744 715.19569 268.07617 714.96094 L 243.92383 714.96094 z " />
    <path
       style="color:#000000;fill:#241f31;stroke-linecap:round;-inkscape-stroke:none"
       d="m 256,96.677734 c -46.04891,0 -83.48633,37.437426 -83.48633,83.486326 0,46.04891 37.43742,83.48633 83.48633,83.48633 46.04891,0 83.48633,-37.43742 83.48633,-83.48633 0,-46.0489 -37.43742,-83.486326 -83.48633,-83.486326 z m 0,9.999996 c 40.64451,0 73.48633,32.84182 73.48633,73.48633 0,40.64451 -32.84182,73.48633 -73.48633,73.48633 -40.64451,0 -73.48633,-32.84182 -73.48633,-73.48633 0,-40.64451 32.84182,-73.48633 73.48633,-73.48633 z"
       id="path1415" />
  </g>
</svg>
